<?xml version="1.0" standalone="no"?>
<!DOCTYPE svg PUBLIC "-//W3C//DTD SVG 20010904//EN"
 "http://www.w3.org/TR/2001/REC-SVG-20010904/DTD/svg10.dtd">
<svg version="1.0" xmlns="http://www.w3.org/2000/svg"
 width="120.000000pt" height="120.000000pt" viewBox="0 0 120.000000 120.000000"
 preserveAspectRatio="xMidYMid meet">
<metadata>
Created by potrace 1.11, written by Peter Selinger 2001-2013
</metadata>
<g transform="translate(0.000000,120.000000) scale(0.100000,-0.100000)"
fill="#000000" stroke="none">
<path d="M170 606 l0 -556 233 0 c172 0 249 4 296 15 204 48 339 186 385 392
59 263 -48 535 -249 634 -113 55 -149 61 -417 66 l-248 5 0 -556z m514 385
c173 -60 255 -202 243 -420 -6 -126 -33 -196 -102 -266 -88 -90 -169 -115
-371 -115 l-124 0 0 409 c0 319 3 410 13 414 6 2 73 2 149 1 104 -3 149 -8
192 -23z"/>
</g>
</svg>
